<svg xmlns="http://www.w3.org/2000/svg" viewBox="0 0 48 48" width="48" height="48">
  <path fill="#00ACD7" d="M7.2 22.4c-.1 0-.2-.1-.1-.2l.6-.7c.1-.1.2-.1.3-.1h10.5c.1 0 .2.1.1.2l-.5.7c-.1.1-.2.1-.3.1H7.2zm-4.9 2.9c-.1 0-.2-.1-.1-.2l.6-.7c.1-.1.2-.1.3-.1h13.4c.1 0 .2.1.1.2l-.2.6c0 .1-.2.2-.3.2H2.3zm7.8 2.9c-.1 0-.2-.1-.1-.2l.4-.7c.1-.1.2-.2.3-.2h5.9c.1 0 .2.1.2.2l-.1.6c0 .1-.1.2-.2.2h-6.4z"/>
  <path fill="#00ACD7" d="M32.4 21.6c-2.1.5-3.5.9-5.5 1.4-.5.1-.5.1-.9-.3-.5-.5-.8-.8-1.5-1.1-2-.9-3.9-.6-5.7.3-2.1 1.1-3.2 2.8-3.2 5.1.1 2.3 1.6 4.1 3.8 4.5 1.9.3 3.5-.3 4.8-1.7.3-.3.5-.6.8-1h-5.3c-.7 0-.8-.4-.6-.9.4-1 1.2-2.6 1.7-3.4.1-.2.3-.5.8-.5h10c-.1.8-.1 1.6-.3 2.4-.4 2-1.4 3.8-2.8 5.3-2.4 2.5-5.3 3.9-8.8 4.1-2.8.2-5.3-.5-7.4-2.4-1.9-1.7-2.8-3.8-2.9-6.3-.1-3 1-5.6 3.1-7.8 2.3-2.3 5.1-3.6 8.3-3.8 2.5-.2 4.8.3 6.8 1.9.8.7 1.5 1.5 2 2.4.1.3.1.4-.3.5z"/>
</svg>